<svg id="Icons" viewBox="0 0 120 120" xmlns="http://www.w3.org/2000/svg"><g fill="#6dd176"><path d="m112.1 46.96c-1.72 0-3.42-.81-4.6-2.38-.71-.94-16.72-21.54-46.96-21.54s-46.29 20.66-46.96 21.54c-2.09 2.76-5.84 3.16-8.37.87-2.53-2.28-2.9-6.37-.83-9.15.8-1.07 20.05-26.31 56.16-26.31s55.36 25.23 56.16 26.31c2.08 2.79 1.7 6.9-.84 9.18-1.1.99-2.44 1.47-3.76 1.47z"/><path d="m98.22 64.35c-1.71 0-3.41-.8-4.58-2.36-.51-.66-11.81-15.03-33.1-15.03s-32.63 14.42-33.1 15.04c-2.11 2.74-5.85 3.12-8.36.83-2.52-2.29-2.88-6.37-.8-9.14.61-.81 15.14-19.77 42.27-19.77s41.66 18.96 42.27 19.77c2.09 2.78 1.72 6.89-.82 9.18-1.11 1-2.45 1.48-3.77 1.48z"/><path d="m82.36 81.74c-1.78 0-3.54-.87-4.71-2.53-.3-.41-6.19-8.34-17.11-8.34s-16.87 8-17.11 8.35c-2.02 2.8-5.75 3.33-8.33 1.13-2.58-2.19-3.08-6.23-1.1-9.08.38-.55 9.53-13.44 26.54-13.44s26.16 12.89 26.54 13.44c1.99 2.87 1.49 6.96-1.13 9.14-1.08.9-2.34 1.33-3.6 1.33z"/></g><ellipse cx="60.55" cy="96.96" fill="#5fed65" rx="11.9" ry="13.04"/></svg>