<svg height="512" viewBox="0 0 24 24" width="512" xmlns="http://www.w3.org/2000/svg"><g id="Glyph"><path d="m23 9.14a10.9 10.9 0 0 1 -3.31 7.86 1 1 0 0 1 -1.4-1.44 9 9 0 0 0 0-12.84 1 1 0 0 1 1.4-1.44 10.9 10.9 0 0 1 3.31 7.86zm-6.12-5a1 1 0 0 0 -1.38 1.44 5 5 0 0 1 0 7.12 1 1 0 0 0 0 1.41 1 1 0 0 0 .72.31 1 1 0 0 0 .69-.28 7 7 0 0 0 0-10zm-13.88 5a8.88 8.88 0 0 1 2.71-6.42 1 1 0 1 0 -1.4-1.44 11 11 0 0 0 0 15.72 1 1 0 1 0 1.4-1.44 8.88 8.88 0 0 1 -2.71-6.42zm5.53-5a1 1 0 0 0 -1.41 0 7 7 0 0 0 0 10 1 1 0 0 0 .69.28 1 1 0 0 0 .72-.31 1 1 0 0 0 0-1.41 5 5 0 0 1 0-7.12 1 1 0 0 0 0-1.41zm3.47 2a3 3 0 0 0 -1 5.86v10a1 1 0 0 0 2 0v-10a3 3 0 0 0 -1-5.82z"/></g></svg>